<svg data-v-fde0c5aa="" xmlns="http://www.w3.org/2000/svg" viewBox="0 0 300 300" class="iconLeftSlogan"><!----><defs data-v-fde0c5aa=""><!----></defs><rect data-v-fde0c5aa="" fill="transparent" x="0" y="0" width="300px" height="300px" class="logo-background-square"></rect><defs data-v-fde0c5aa=""><!----></defs><g data-v-fde0c5aa="" id="7a3c3873-7afb-4606-902e-4055a9487cf4" fill="#000000" transform="matrix(2.6432222392377853,0,0,2.6432222392377853,107.08959623294457,119.54145984309181)"><path d="M0.73 12.29L4.37 12.29L4.37 12.07L3.21 12.07L3.21 7.80L3.95 7.80C5.31 7.80 5.71 8.27 5.71 9.63L5.95 9.63L5.95 5.78L5.71 5.78C5.71 7.14 5.31 7.57 3.95 7.57L3.21 7.57L3.21 3.42L4.47 3.42C6.79 3.42 7.17 3.92 7.17 6.24L7.39 6.24L7.39 3.19L0.73 3.19L0.73 3.42L1.75 3.42L1.75 12.07L0.73 12.07ZM10.54 5.67C9.88 5.81 9.27 5.85 8.60 5.85L8.30 5.85L8.30 6.06L9.30 6.06L9.30 12.08L8.37 12.08L8.37 12.29L11.47 12.29L11.47 12.08L10.54 12.08ZM9.06 3.74C9.06 4.20 9.41 4.55 9.87 4.55C10.33 4.55 10.70 4.20 10.70 3.74C10.70 3.28 10.33 2.91 9.87 2.91C9.41 2.91 9.06 3.28 9.06 3.74ZM14.25 5.57C13.38 5.57 12.66 5.95 12.66 6.87C12.66 7.42 13.06 7.87 13.62 7.87C14.04 7.87 14.41 7.55 14.41 7.13C14.41 6.72 14.15 6.37 13.73 6.37C13.43 6.37 13.22 6.54 13.17 6.73C13.16 6.82 13.12 6.86 13.05 6.86C12.99 6.86 12.92 6.82 12.92 6.73C12.92 6.06 13.58 5.80 14.25 5.80C14.84 5.80 15.74 5.98 16.28 6.06L12.42 12.28L12.47 12.38C12.70 12.32 13.05 12.28 13.30 12.28C14.34 12.28 15.18 12.57 16.21 12.57C17.22 12.57 18.09 12.19 18.09 11.13C18.09 10.58 17.68 10.14 17.12 10.14C16.70 10.14 16.34 10.46 16.34 10.88C16.34 11.28 16.59 11.63 17.01 11.63C17.32 11.63 17.53 11.47 17.57 11.27C17.58 11.19 17.63 11.14 17.70 11.14C17.75 11.14 17.82 11.19 17.82 11.27C17.82 12.08 17.02 12.35 16.21 12.35C15.62 12.35 14.52 12.17 13.97 12.08L13.96 12.08L17.84 5.87L17.78 5.77C17.56 5.82 17.21 5.87 16.95 5.87C15.92 5.87 15.29 5.57 14.25 5.57ZM20.69 5.57C19.82 5.57 19.10 5.95 19.10 6.87C19.10 7.42 19.50 7.87 20.06 7.87C20.48 7.87 20.85 7.55 20.85 7.13C20.85 6.72 20.59 6.37 20.17 6.37C19.87 6.37 19.66 6.54 19.61 6.73C19.60 6.82 19.56 6.86 19.49 6.86C19.43 6.86 19.36 6.82 19.36 6.73C19.36 6.06 20.02 5.80 20.69 5.80C21.28 5.80 22.18 5.98 22.72 6.06L18.86 12.28L18.91 12.38C19.14 12.32 19.49 12.28 19.74 12.28C20.78 12.28 21.62 12.57 22.65 12.57C23.66 12.57 24.53 12.19 24.53 11.13C24.53 10.58 24.12 10.14 23.56 10.14C23.14 10.14 22.78 10.46 22.78 10.88C22.78 11.28 23.03 11.63 23.45 11.63C23.76 11.63 23.97 11.47 24.01 11.27C24.02 11.19 24.07 11.14 24.14 11.14C24.19 11.14 24.26 11.19 24.26 11.27C24.26 12.08 23.46 12.35 22.65 12.35C22.06 12.35 20.96 12.17 20.41 12.08L20.40 12.08L24.28 5.87L24.22 5.77C24.00 5.82 23.65 5.87 23.39 5.87C22.36 5.87 21.73 5.57 20.69 5.57ZM31.96 12.29C34.09 12.29 35.85 11.69 35.85 9.56C35.85 8.05 34.64 7.39 33.12 7.36L33.12 7.28C34.47 7.15 35.52 6.50 35.52 5.15C35.52 3.60 34.36 3.19 31.79 3.19L28.62 3.19L28.62 3.42L29.64 3.42L29.64 12.07L28.62 12.07L28.62 12.29ZM34.29 9.66C34.29 11.37 33.46 12.07 31.75 12.07L31.09 12.07L31.09 7.48L31.42 7.48C33.26 7.48 34.29 7.95 34.29 9.66ZM33.95 5.18C33.95 6.72 33.03 7.25 31.49 7.25L31.09 7.25L31.09 3.42L31.70 3.42C33.12 3.42 33.95 3.75 33.95 5.18ZM42.55 6.06L42.55 8.60C42.55 10.19 42.22 12.18 40.63 12.18C39.59 12.18 39.59 10.64 39.59 9.51L39.59 5.67C38.93 5.81 38.32 5.85 37.65 5.85L37.35 5.85L37.35 6.06L38.35 6.06L38.35 9.70C38.35 11.41 38.65 12.57 40.36 12.57C41.30 12.57 42.13 11.97 42.43 11.07L42.52 11.07L42.52 12.29L44.72 12.29L44.72 12.08L43.79 12.08L43.79 5.67C43.13 5.81 42.52 5.85 41.85 5.85L41.55 5.85L41.55 6.06ZM47.57 5.57C46.70 5.57 45.98 5.95 45.98 6.87C45.98 7.42 46.38 7.87 46.94 7.87C47.36 7.87 47.73 7.55 47.73 7.13C47.73 6.72 47.47 6.37 47.05 6.37C46.75 6.37 46.54 6.54 46.49 6.73C46.48 6.82 46.44 6.86 46.37 6.86C46.31 6.86 46.24 6.82 46.24 6.73C46.24 6.06 46.90 5.80 47.57 5.80C48.16 5.80 49.06 5.98 49.60 6.06L45.74 12.28L45.79 12.38C46.02 12.32 46.37 12.28 46.62 12.28C47.66 12.28 48.50 12.57 49.53 12.57C50.54 12.57 51.41 12.19 51.41 11.13C51.41 10.58 51.00 10.14 50.44 10.14C50.02 10.14 49.66 10.46 49.66 10.88C49.66 11.28 49.91 11.63 50.33 11.63C50.64 11.63 50.85 11.47 50.89 11.27C50.90 11.19 50.95 11.14 51.02 11.14C51.07 11.14 51.14 11.19 51.14 11.27C51.14 12.08 50.34 12.35 49.53 12.35C48.94 12.35 47.84 12.17 47.29 12.08L47.28 12.08L51.16 5.87L51.10 5.77C50.88 5.82 50.53 5.87 50.27 5.87C49.24 5.87 48.61 5.57 47.57 5.57ZM54.01 5.57C53.14 5.57 52.42 5.95 52.42 6.87C52.42 7.42 52.82 7.87 53.38 7.87C53.80 7.87 54.17 7.55 54.17 7.13C54.17 6.72 53.91 6.37 53.49 6.37C53.19 6.37 52.98 6.54 52.93 6.73C52.92 6.82 52.88 6.86 52.81 6.86C52.75 6.86 52.68 6.82 52.68 6.73C52.68 6.06 53.34 5.80 54.01 5.80C54.60 5.80 55.50 5.98 56.04 6.06L52.18 12.28L52.23 12.38C52.46 12.32 52.81 12.28 53.06 12.28C54.10 12.28 54.94 12.57 55.97 12.57C56.98 12.57 57.85 12.19 57.85 11.13C57.85 10.58 57.44 10.14 56.88 10.14C56.46 10.14 56.10 10.46 56.10 10.88C56.10 11.28 56.35 11.63 56.77 11.63C57.08 11.63 57.29 11.47 57.33 11.27C57.34 11.19 57.39 11.14 57.46 11.14C57.51 11.14 57.58 11.19 57.58 11.27C57.58 12.08 56.78 12.35 55.97 12.35C55.38 12.35 54.28 12.17 53.73 12.08L53.72 12.08L57.60 5.87L57.54 5.77C57.32 5.82 56.97 5.87 56.71 5.87C55.68 5.87 55.05 5.57 54.01 5.57Z"></path></g><defs data-v-fde0c5aa=""><linearGradient data-v-fde0c5aa="" gradientTransform="rotate(25)" id="4f452dfa-0a44-459f-9661-99cc7419ae1e" x1="0%" y1="0%" x2="100%" y2="0%"><stop data-v-fde0c5aa="" offset="0%" stop-color="#050922" stop-opacity="1"></stop><stop data-v-fde0c5aa="" offset="100%" stop-color="#6EE6C7" stop-opacity="1"></stop></linearGradient></defs><g data-v-fde0c5aa="" id="a250fe50-c878-4b75-b27c-772d0d108b1b" stroke="none" fill="url(#4f452dfa-0a44-459f-9661-99cc7419ae1e)" transform="matrix(0.620614462254834,0,0,0.620614462254834,36.978848778803815,118.96927866285053)"><path d="M80.852 33.376c7.886 0 14.28-6.394 14.28-14.281S88.737 4.814 80.852 4.814c-7.888 0-14.281 6.394-14.281 14.281s6.393 14.281 14.281 14.281zm0-26.653c6.822 0 12.372 5.55 12.372 12.373s-5.55 12.373-12.372 12.373-12.373-5.55-12.373-12.373 5.55-12.373 12.373-12.373z"></path><path d="M80.968 8.6l.388.106c.138.055.288.104.445.162.316.109.67.218 1.038.391l.574.238c.19.097.389.197.589.3l.308.149c.102.054.199.12.301.18.199.125.409.239.617.362.392.29.819.543 1.201.877.405.301.767.666 1.145 1.008.343.378.709.738 1.009 1.144.335.381.588.81.878 1.201.123.209.238.417.363.618.06.101.125.199.179.301l.149.307.302.59.236.575c.075.185.167.364.221.535l.169.492c.057.156.106.305.162.443l.106.398c.061.241.126.43.163.559l.064.198.044-.203c.023-.132.069-.326.104-.572.021-.124.043-.26.065-.408.011-.152.013-.319.018-.499.007-.18.006-.373.007-.578.004-.208-.036-.41-.056-.632-.025-.22-.057-.449-.09-.688-.059-.232-.117-.473-.18-.721a23.8 23.8 0 0 0-.1-.377c-.04-.126-.092-.248-.139-.375-.094-.253-.2-.508-.307-.77-.127-.25-.264-.501-.404-.756-.129-.261-.301-.5-.474-.742-.319-.503-.742-.938-1.143-1.389-.452-.401-.886-.825-1.39-1.145-.241-.172-.479-.346-.741-.474-.252-.139-.502-.278-.753-.405-.262-.105-.516-.214-.769-.307-.127-.046-.25-.098-.375-.138-.127-.034-.254-.067-.377-.101l-.722-.179-.688-.089c-.222-.019-.427-.061-.629-.055l-.571.007c-.178.006-.342.007-.495.019l-.417.063c-.251.036-.446.082-.578.106l-.2.044.199.065c.129.039.318.104.554.165zM82.76 70.44c-6.834 0-12.373 5.539-12.373 12.373 0 6.833 5.539 12.372 12.373 12.372 6.833 0 12.372-5.539 12.372-12.372 0-6.834-5.539-12.373-12.372-12.373zm0 22.837c-5.771 0-10.466-4.695-10.466-10.464 0-5.771 4.695-10.465 10.466-10.465 5.77 0 10.464 4.694 10.464 10.465 0 5.769-4.695 10.464-10.464 10.464z"></path><path d="M88.305 75.048c-.212-.15-.422-.301-.651-.412-.226-.121-.446-.241-.666-.35-.23-.091-.453-.183-.678-.263a4.075 4.075 0 0 0-.659-.2c-.219-.051-.43-.1-.635-.146a241.12 241.12 0 0 0-.603-.069c-.194-.012-.374-.044-.552-.036-.178.007-.343.009-.499.018-.155.01-.299.015-.432.027l-.365.068c-.219.038-.388.085-.502.11-.113.029-.173.046-.173.046l.172.063c.111.036.273.101.479.158.101.032.211.067.333.104.119.053.248.099.383.152.271.103.574.205.889.362l.489.215.503.269.261.134c.087.047.169.104.256.156.169.111.347.211.525.317.331.253.694.475 1.021.76.344.261.651.572.974.866.294.322.607.629.867.973.287.324.506.689.761 1.021.106.178.207.354.316.524.053.087.111.17.158.256.044.089.087.176.134.261l.269.503.215.49c.157.317.258.609.359.878.054.134.101.261.153.38l.104.345c.06.209.123.372.159.482l.063.172.045-.177c.024-.114.072-.283.108-.497.021-.106.045-.225.069-.354.013-.133.018-.277.027-.436.01-.157.012-.326.017-.507.007-.182-.024-.357-.037-.554-.019-.192-.043-.393-.068-.603-.043-.205-.096-.414-.146-.633a4.173 4.173 0 0 0-.201-.661c-.079-.224-.171-.447-.263-.677-.107-.221-.228-.441-.348-.665-.112-.231-.263-.44-.412-.653-.278-.441-.648-.824-1-1.219-.397-.349-.777-.719-1.219-.998zM71.699 46.732c-.012-.329-.053-.676-.081-1.045-.027-.37-.105-.751-.161-1.156-.065-.402-.167-.814-.258-1.247-.118-.423-.224-.869-.376-1.313-.279-.897-.667-1.813-1.115-2.741a21.36 21.36 0 0 0-1.643-2.718 22.563 22.563 0 0 0-2.126-2.506 22.189 22.189 0 0 0-2.506-2.126 21.368 21.368 0 0 0-2.717-1.645c-.927-.448-1.844-.835-2.741-1.115-.444-.152-.891-.257-1.313-.376-.432-.09-.845-.19-1.246-.257-.405-.055-.786-.132-1.156-.161-.371-.028-.716-.07-1.046-.081-.329-.01-.635-.026-.919-.027l-.778.027c-.468.004-.834.072-1.083.09l-.38.045.378.064c.246.043.606.086 1.059.179l.748.144c.27.069.561.129.87.2a29.43 29.43 0 0 1 2.038.592c.367.121.743.265 1.134.405.381.167.785.306 1.182.498.807.349 1.62.79 2.445 1.26a27.692 27.692 0 0 1 2.421 1.643 26.316 26.316 0 0 1 2.262 1.989 25.843 25.843 0 0 1 1.991 2.261 27.997 27.997 0 0 1 1.644 2.42c.471.826.911 1.64 1.261 2.446.191.396.331.801.499 1.182.139.39.282.766.404 1.133.239.736.438 1.422.591 2.039.071.309.131.601.2.87l.144.744c.092.451.135.819.179 1.063.04.247.063.378.063.378l.045-.381c.017-.25.086-.609.089-1.08.009-.236.017-.497.026-.781-.002-.28-.017-.586-.028-.916zM39.829 60.226c-.693-.617-1.357-1.27-2.125-1.771l-.553-.397c-.18-.138-.387-.231-.578-.348-.389-.22-.771-.438-1.152-.645-.398-.171-.788-.344-1.172-.502-.193-.076-.379-.163-.571-.229a84.02 84.02 0 0 0-.576-.173l-1.103-.319c-.364-.063-.717-.125-1.055-.186l-.495-.079c-.161-.026-.316-.055-.474-.055l-.882-.038c-.275-.01-.531-.025-.768-.027l-.654.053c-.393.028-.698.069-.906.09l-.317.038.315.071c.206.041.505.111.883.18l.623.119c.223.068.464.128.72.199l.811.221c.285.069.573.198.877.303.302.105.616.217.942.332l.971.439.505.223c.168.081.33.182.498.271.332.188.675.368 1.021.557.649.452 1.356.852 1.986 1.388.67.481 1.261 1.075 1.881 1.635.559.62 1.154 1.21 1.636 1.881.537.628.936 1.336 1.389 1.985.188.345.368.688.556 1.021.09.167.191.329.271.497l.222.506.44.972.333.941c.103.303.231.594.301.874l.219.803c.071.254.131.495.2.717l.119.633c.068.384.139.684.179.889l.07.314.039-.32c.02-.207.06-.514.089-.901l.053-.643c-.001-.236-.017-.493-.027-.771l-.04-.889c0-.16-.027-.316-.055-.477l-.08-.495-.185-1.055-.319-1.103-.173-.575c-.066-.192-.153-.379-.23-.571-.157-.384-.329-.773-.501-1.172a63.228 63.228 0 0 0-.644-1.153c-.206-.398-.477-.761-.744-1.13-.501-.77-1.153-1.436-1.77-2.128z"></path><path d="M50.054 22.85c-1.385 0-2.745.105-4.074.306-1.108-10.311-9.836-18.342-20.441-18.342-11.356 0-20.563 9.206-20.563 20.562 0 10.606 8.03 19.334 18.342 20.441a27.23 27.23 0 0 0-.306 4.075c0 .187.004.372.009.557C12.67 52.511 4.868 61.643 4.868 72.599c0 12.475 10.113 22.587 22.587 22.587 10.993 0 20.147-7.854 22.167-18.256.144.001.287.005.431.005 14.935 0 27.043-12.107 27.043-27.042.001-14.935-12.108-27.043-27.042-27.043zm-4.908 2.526c0 10.813-8.796 19.608-19.608 19.608l-.132-.003c.064-.32.135-.637.21-.953 2.198-9.156 9.417-16.375 18.573-18.573.316-.076.633-.146.953-.211.002.045.004.089.004.132zm2.726 50.501c-12.604-1.05-22.681-11.091-23.79-23.677a20.62 20.62 0 0 1 3.374-.28c11.402 0 20.678 9.276 20.678 20.679 0 1.115-.092 2.21-.262 3.278zM6.884 25.376c0-10.286 8.368-18.654 18.654-18.654 9.657 0 17.624 7.378 18.561 16.793-.695.156-1.378.341-2.052.55l.037-.387c.001-.216-.01-.451-.018-.704l-.027-.814c.001-.146-.023-.289-.046-.436a90.58 90.58 0 0 0-.069-.453l-.162-.965-.285-1.009-.156-.528c-.06-.175-.138-.346-.208-.523-.142-.353-.298-.709-.454-1.074-.187-.349-.385-.7-.585-1.056-.188-.365-.435-.698-.679-1.036-.457-.703-1.053-1.312-1.617-1.946-.634-.565-1.243-1.162-1.946-1.619l-.507-.362c-.164-.125-.354-.211-.529-.316-.356-.201-.707-.4-1.056-.586-.365-.156-.721-.313-1.074-.455-.177-.07-.348-.147-.523-.207l-.527-.156-1.009-.285-.966-.162c-.311-.039-.6-.111-.886-.115l-.806-.026c-.252-.006-.485-.019-.702-.017l-.596.055c-.358.03-.637.072-.826.093l-.289.04.287.07c.187.04.459.109.803.175l.565.116c.202.066.421.122.653.189l.735.209c.258.066.518.186.793.283l.853.309.878.407.457.204c.151.074.297.166.449.249.299.173.611.336.922.509.586.412 1.225.777 1.794 1.263.605.438 1.141.976 1.702 1.482.506.561 1.045 1.095 1.483 1.7.488.568.851 1.209 1.265 1.794.172.313.336.623.509.923.083.151.175.297.249.449l.205.457.406.878.309.852c.097.275.215.538.283.792l.207.727c.067.23.124.448.189.65l.099.491c-8.965 2.935-15.863 10.424-17.957 19.738-9.412-.932-16.79-8.897-16.79-18.556zm20.572 67.901c-11.403 0-20.68-9.277-20.68-20.678 0-9.923 7.026-18.231 16.364-20.222 1.185 12.991 11.55 23.318 24.56 24.441-1.953 9.386-10.288 16.459-20.244 16.459zm22.598-18.25l-.143-.003c.085-.797.131-1.606.131-2.426 0-12.474-10.112-22.587-22.587-22.587-.855 0-1.699.052-2.529.145-.001-.088-.007-.176-.007-.264 0-1.348.11-2.67.315-3.961v-.001c.101.001.202.008.304.008 11.356 0 20.562-9.206 20.562-20.563 0-.102-.007-.202-.009-.303h.001a25.112 25.112 0 0 1 3.96-.315c13.859 0 25.134 11.275 25.134 25.134.002 13.86-11.273 25.136-25.132 25.136z"></path></g><defs data-v-fde0c5aa=""><!----></defs><g data-v-fde0c5aa="" id="8a3954b5-96cf-4c96-80fc-c9c65c488d0f" fill="#000000" transform="matrix(0.3527754745695809,0,0,0.3527754745695809,108.96623219471547,160.76299857885937)"><path d="M8.41 5.88L7.42 15.68L5.28 15.68L4.37 6.38L4.20 6.38L3.29 15.68L1.15 15.68L0.15 5.88L1.22 5.88L2.16 15.18L2.32 15.18L3.21 5.88L5.36 5.88L6.24 15.18L6.41 15.18L7.35 5.88L8.41 5.88ZM16.59 15.68L16.59 5.88L17.77 5.88L17.77 10.22L21.94 10.22L21.94 5.88L23.11 5.88L23.11 15.68L21.94 15.68L21.94 11.31L17.77 11.31L17.77 15.68L16.59 15.68ZM32.45 15.68L32.45 5.88L38.39 5.88L38.39 6.97L33.63 6.97L33.63 10.22L38.30 10.22L38.30 11.31L33.63 11.31L33.63 14.59L38.47 14.59L38.47 15.68L32.45 15.68ZM50.08 5.88L52.91 15.18L53.07 15.18L53.07 5.88L54.25 5.88L54.25 15.68L51.90 15.68L49.07 6.38L48.90 6.38L48.90 15.68L47.73 15.68L47.73 5.88L50.08 5.88ZM79.02 6.97L79.02 5.88L85.23 5.88L85.23 6.97L82.71 6.97L82.71 14.59L85.23 14.59L85.23 15.68L79.02 15.68L79.02 14.59L81.54 14.59L81.54 6.97L79.02 6.97ZM94.25 6.97L94.25 5.88L101.14 5.88L101.14 6.97L98.28 6.97L98.28 15.68L97.10 15.68L97.10 6.97L94.25 6.97ZM128.88 14.78L128.88 14.78L128.88 14.78Q129.49 14.78 129.91 14.58L129.91 14.58L129.91 14.58Q130.34 14.38 130.61 14.04L130.61 14.04L130.61 14.04Q130.89 13.69 131.02 13.25L131.02 13.25L131.02 13.25Q131.15 12.81 131.15 12.32L131.15 12.32L131.15 12.15L132.33 12.15L132.33 12.32L132.33 12.32Q132.33 13.06 132.10 13.71L132.10 13.71L132.10 13.71Q131.88 14.36 131.45 14.85L131.45 14.85L131.45 14.85Q131.01 15.33 130.37 15.60L130.37 15.60L130.37 15.60Q129.72 15.88 128.88 15.88L128.88 15.88L128.88 15.88Q127.26 15.88 126.35 14.85L126.35 14.85L126.35 14.85Q125.44 13.83 125.44 11.87L125.44 11.87L125.44 9.69L125.44 9.69Q125.44 7.78 126.35 6.73L126.35 6.73L126.35 6.73Q127.26 5.68 128.88 5.68L128.88 5.68L128.88 5.68Q129.72 5.68 130.37 5.96L130.37 5.96L130.37 5.96Q131.01 6.23 131.45 6.71L131.45 6.71L131.45 6.71Q131.88 7.20 132.10 7.85L132.10 7.85L132.10 7.85Q132.33 8.50 132.33 9.24L132.33 9.24L132.33 9.41L131.15 9.41L131.15 9.24L131.15 9.24Q131.14 8.76 131.00 8.32L131.00 8.32L131.00 8.32Q130.87 7.87 130.60 7.53L130.60 7.53L130.60 7.53Q130.33 7.18 129.91 6.98L129.91 6.98L129.91 6.98Q129.49 6.78 128.88 6.78L128.88 6.78L128.88 6.78Q127.75 6.78 127.18 7.60L127.18 7.60L127.18 7.60Q126.62 8.43 126.62 9.77L126.62 9.77L126.62 11.79L126.62 11.79Q126.62 13.23 127.18 14.01L127.18 14.01L127.18 14.01Q127.75 14.78 128.88 14.78ZM140.95 11.87L140.95 9.69L140.95 9.69Q140.95 7.78 141.86 6.73L141.86 6.73L141.86 6.73Q142.77 5.68 144.40 5.68L144.40 5.68L144.40 5.68Q146.02 5.68 146.93 6.73L146.93 6.73L146.93 6.73Q147.84 7.78 147.84 9.69L147.84 9.69L147.84 11.87L147.84 11.87Q147.84 13.83 146.93 14.85L146.93 14.85L146.93 14.85Q146.02 15.88 144.40 15.88L144.40 15.88L144.40 15.88Q142.77 15.88 141.86 14.85L141.86 14.85L141.86 14.85Q140.95 13.83 140.95 11.87L140.95 11.87ZM144.40 14.78L144.40 14.78L144.40 14.78Q145.53 14.78 146.10 14.01L146.10 14.01L146.10 14.01Q146.66 13.23 146.66 11.79L146.66 11.79L146.66 9.77L146.66 9.77Q146.66 8.43 146.10 7.60L146.10 7.60L146.10 7.60Q145.53 6.78 144.40 6.78L144.40 6.78L144.40 6.78Q143.26 6.78 142.69 7.60L142.69 7.60L142.69 7.60Q142.13 8.43 142.13 9.77L142.13 9.77L142.13 11.79L142.13 11.79Q142.13 13.23 142.69 14.01L142.69 14.01L142.69 14.01Q143.26 14.78 144.40 14.78ZM156.60 5.88L157.78 5.88L157.78 12.38L157.78 12.38Q157.78 13.57 158.33 14.17L158.33 14.17L158.33 14.17Q158.89 14.78 159.96 14.78L159.96 14.78L159.96 14.78Q161.04 14.78 161.59 14.17L161.59 14.17L161.59 14.17Q162.15 13.57 162.15 12.38L162.15 12.38L162.15 5.88L163.32 5.88L163.32 12.38L163.32 12.38Q163.32 14.08 162.43 14.98L162.43 14.98L162.43 14.98Q161.53 15.88 159.96 15.88L159.96 15.88L159.96 15.88Q158.40 15.88 157.50 14.98L157.50 14.98L157.50 14.98Q156.60 14.08 156.60 12.38L156.60 12.38L156.60 5.88ZM174.62 5.88L177.45 15.18L177.62 15.18L177.62 5.88L178.79 5.88L178.79 15.68L176.44 15.68L173.61 6.38L173.45 6.38L173.45 15.68L172.27 15.68L172.27 5.88L174.62 5.88ZM187.66 6.97L187.66 5.88L194.54 5.88L194.54 6.97L191.69 6.97L191.69 15.68L190.51 15.68L190.51 6.97L187.66 6.97ZM208.98 9.21L208.98 8.71L208.98 8.71Q208.98 8.23 208.79 7.87L208.79 7.87L208.79 7.87Q208.60 7.50 208.28 7.27L208.28 7.27L208.28 7.27Q207.96 7.03 207.54 6.90L207.54 6.90L207.54 6.90Q207.12 6.78 206.65 6.78L206.65 6.78L206.65 6.78Q206.25 6.78 205.88 6.88L205.88 6.88L205.88 6.88Q205.52 6.99 205.23 7.18L205.23 7.18L205.23 7.18Q204.95 7.38 204.78 7.66L204.78 7.66L204.78 7.66Q204.61 7.95 204.61 8.33L204.61 8.33L204.61 8.41L204.61 8.41Q204.61 8.82 204.78 9.11L204.78 9.11L204.78 9.11Q204.95 9.39 205.28 9.60L205.28 9.60L205.28 9.60Q205.60 9.80 206.09 9.93L206.09 9.93L206.09 9.93Q206.58 10.07 207.24 10.16L207.24 10.16L207.24 10.16Q208.78 10.40 209.51 11.07L209.51 11.07L209.51 11.07Q210.24 11.73 210.24 12.85L210.24 12.85L210.24 13.02L210.24 13.02Q210.24 13.65 210.02 14.17L210.02 14.17L210.02 14.17Q209.80 14.70 209.38 15.08L209.38 15.08L209.38 15.08Q208.95 15.46 208.32 15.67L208.32 15.67L208.32 15.67Q207.69 15.88 206.86 15.88L206.86 15.88L206.86 15.88Q205.93 15.88 205.21 15.60L205.21 15.60L205.21 15.60Q204.48 15.33 204.00 14.85L204.00 14.85L204.00 14.85Q203.52 14.36 203.27 13.71L203.27 13.71L203.27 13.71Q203.01 13.06 203.01 12.29L203.01 12.29L203.01 11.87L204.19 11.87L204.19 12.21L204.19 12.21Q204.19 13.50 204.90 14.14L204.90 14.14L204.90 14.14Q205.60 14.78 206.86 14.78L206.86 14.78L206.86 14.78Q207.96 14.78 208.51 14.30L208.51 14.30L208.51 14.30Q209.06 13.82 209.06 13.02L209.06 13.02L209.06 12.94L209.06 12.94Q209.06 12.17 208.50 11.76L208.50 11.76L208.50 11.76Q207.93 11.35 206.65 11.17L206.65 11.17L206.65 11.17Q205.91 11.07 205.32 10.87L205.32 10.87L205.32 10.87Q204.72 10.67 204.30 10.34L204.30 10.34L204.30 10.34Q203.88 10.01 203.66 9.55L203.66 9.55L203.66 9.55Q203.43 9.09 203.43 8.46L203.43 8.46L203.43 8.29L203.43 8.29Q203.43 7.71 203.67 7.24L203.67 7.24L203.67 7.24Q203.91 6.76 204.34 6.41L204.34 6.41L204.34 6.41Q204.76 6.06 205.36 5.87L205.36 5.87L205.36 5.87Q205.95 5.68 206.67 5.68L206.67 5.68L206.67 5.68Q207.49 5.68 208.15 5.92L208.15 5.92L208.15 5.92Q208.80 6.16 209.24 6.56L209.24 6.56L209.24 6.56Q209.69 6.96 209.92 7.50L209.92 7.50L209.92 7.50Q210.15 8.04 210.15 8.62L210.15 8.62L210.15 9.21L208.98 9.21ZM221.26 14.90L221.26 14.90L221.26 14.90Q221.26 14.49 221.54 14.20L221.54 14.20L221.54 14.20Q221.83 13.92 222.24 13.92L222.24 13.92L222.24 13.92Q222.64 13.92 222.93 14.20L222.93 14.20L222.93 14.20Q223.22 14.49 223.22 14.90L223.22 14.90L223.22 16.27L223.22 16.27Q223.22 16.74 222.92 17.05L222.92 17.05L222.92 17.05Q222.61 17.36 222.14 17.36L222.14 17.36L221.42 17.36L221.42 16.60L222.08 16.60L222.08 16.60Q222.46 16.60 222.46 16.18L222.46 16.18L222.46 15.83L222.46 15.83Q222.35 15.88 222.22 15.88L222.22 15.88L222.22 15.88Q221.83 15.88 221.54 15.59L221.54 15.59L221.54 15.59Q221.26 15.30 221.26 14.90ZM252.78 15.68L252.78 12.24L252.53 12.24L249.47 5.88L250.78 5.88L253.29 11.23L253.46 11.23L255.96 5.88L257.28 5.88L254.21 12.24L253.96 12.24L253.96 15.68L252.78 15.68ZM265.50 11.87L265.50 9.69L265.50 9.69Q265.50 7.78 266.41 6.73L266.41 6.73L266.41 6.73Q267.32 5.68 268.94 5.68L268.94 5.68L268.94 5.68Q270.56 5.68 271.47 6.73L271.47 6.73L271.47 6.73Q272.38 7.78 272.38 9.69L272.38 9.69L272.38 11.87L272.38 11.87Q272.38 13.83 271.47 14.85L271.47 14.85L271.47 14.85Q270.56 15.88 268.94 15.88L268.94 15.88L268.94 15.88Q267.32 15.88 266.41 14.85L266.41 14.85L266.41 14.85Q265.50 13.83 265.50 11.87L265.50 11.87ZM268.94 14.78L268.94 14.78L268.94 14.78Q270.07 14.78 270.64 14.01L270.64 14.01L270.64 14.01Q271.21 13.23 271.21 11.79L271.21 11.79L271.21 9.77L271.21 9.77Q271.21 8.43 270.64 7.60L270.64 7.60L270.64 7.60Q270.07 6.78 268.94 6.78L268.94 6.78L268.94 6.78Q267.81 6.78 267.24 7.60L267.24 7.60L267.24 7.60Q266.67 8.43 266.67 9.77L266.67 9.77L266.67 11.79L266.67 11.79Q266.67 13.23 267.24 14.01L267.24 14.01L267.24 14.01Q267.81 14.78 268.94 14.78ZM281.15 5.88L282.32 5.88L282.32 12.38L282.32 12.38Q282.32 13.57 282.88 14.17L282.88 14.17L282.88 14.17Q283.43 14.78 284.51 14.78L284.51 14.78L284.51 14.78Q285.59 14.78 286.14 14.17L286.14 14.17L286.14 14.17Q286.69 13.57 286.69 12.38L286.69 12.38L286.69 5.88L287.87 5.88L287.87 12.38L287.87 12.38Q287.87 14.08 286.97 14.98L286.97 14.98L286.97 14.98Q286.08 15.88 284.51 15.88L284.51 15.88L284.51 15.88Q282.94 15.88 282.04 14.98L282.04 14.98L282.04 14.98Q281.15 14.08 281.15 12.38L281.15 12.38L281.15 5.88ZM312.69 15.68L312.69 5.88L318.71 5.88L318.71 6.97L313.87 6.97L313.87 10.22L318.63 10.22L318.63 11.31L313.87 11.31L313.87 15.68L312.69 15.68ZM328.10 6.97L328.10 5.88L334.32 5.88L334.32 6.97L331.80 6.97L331.80 14.59L334.32 14.59L334.32 15.68L328.10 15.68L328.10 14.59L330.62 14.59L330.62 6.97L328.10 6.97ZM343.57 6.97L343.57 5.88L350.13 5.88L350.13 7.64L344.25 14.42L344.25 14.59L350.29 14.59L350.29 15.68L343.24 15.68L343.24 13.92L349.12 7.14L349.12 6.97L343.57 6.97ZM359.14 6.97L359.14 5.88L365.69 5.88L365.69 7.64L359.81 14.42L359.81 14.59L365.86 14.59L365.86 15.68L358.81 15.68L358.81 13.92L364.69 7.14L364.69 6.97L359.14 6.97ZM374.43 15.68L374.43 14.59L375.27 14.59L375.27 6.97L374.43 6.97L374.43 5.88L378.39 5.88L378.39 5.88Q379.09 5.88 379.63 6.08L379.63 6.08L379.63 6.08Q380.17 6.27 380.54 6.61L380.54 6.61L380.54 6.61Q380.91 6.94 381.10 7.41L381.10 7.41L381.10 7.41Q381.29 7.88 381.29 8.43L381.29 8.43L381.29 8.60L381.29 8.60Q381.29 9.00 381.16 9.34L381.16 9.34L381.16 9.34Q381.04 9.67 380.81 9.94L380.81 9.94L380.81 9.94Q380.59 10.21 380.29 10.39L380.29 10.39L380.29 10.39Q379.99 10.58 379.64 10.68L379.64 10.68L379.64 10.85L379.64 10.85Q380.34 11.05 380.81 11.60L380.81 11.60L380.81 11.60Q381.29 12.15 381.29 12.95L381.29 12.95L381.29 13.12L381.29 13.12Q381.29 13.66 381.10 14.13L381.10 14.13L381.10 14.13Q380.91 14.60 380.54 14.95L380.54 14.95L380.54 14.95Q380.17 15.29 379.63 15.48L379.63 15.48L379.63 15.48Q379.09 15.68 378.39 15.68L378.39 15.68L374.43 15.68ZM376.45 11.31L376.45 14.59L378.31 14.59L378.31 14.59Q379.13 14.59 379.65 14.17L379.65 14.17L379.65 14.17Q380.17 13.76 380.17 13.03L380.17 13.03L380.17 12.95L380.17 12.95Q380.17 12.19 379.68 11.75L379.68 11.75L379.68 11.75Q379.19 11.31 378.35 11.31L378.35 11.31L376.45 11.31ZM376.45 6.97L376.45 10.22L378.35 10.22L378.35 10.22Q379.19 10.22 379.68 9.79L379.68 9.79L379.68 9.79Q380.17 9.35 380.17 8.60L380.17 8.60L380.17 8.51L380.17 8.51Q380.17 7.80 379.65 7.38L379.65 7.38L379.65 7.38Q379.13 6.97 378.31 6.97L378.31 6.97L376.45 6.97ZM390.12 5.88L391.30 5.88L391.30 12.38L391.30 12.38Q391.30 13.57 391.85 14.17L391.85 14.17L391.85 14.17Q392.41 14.78 393.48 14.78L393.48 14.78L393.48 14.78Q394.56 14.78 395.11 14.17L395.11 14.17L395.11 14.17Q395.67 13.57 395.67 12.38L395.67 12.38L395.67 5.88L396.84 5.88L396.84 12.38L396.84 12.38Q396.84 14.08 395.95 14.98L395.95 14.98L395.95 14.98Q395.05 15.88 393.48 15.88L393.48 15.88L393.48 15.88Q391.92 15.88 391.02 14.98L391.02 14.98L391.02 14.98Q390.12 14.08 390.12 12.38L390.12 12.38L390.12 5.88ZM405.85 6.97L405.85 5.88L412.40 5.88L412.40 7.64L406.52 14.42L406.52 14.59L412.57 14.59L412.57 15.68L405.51 15.68L405.51 13.92L411.39 7.14L411.39 6.97L405.85 6.97ZM421.41 6.97L421.41 5.88L427.97 5.88L427.97 7.64L422.09 14.42L422.09 14.59L428.13 14.59L428.13 15.68L421.08 15.68L421.08 13.92L426.96 7.14L426.96 6.97L421.41 6.97Z"></path></g></svg>